<svg width="93" height="28" viewBox="0 0 93 28" fill="none" xmlns="http://www.w3.org/2000/svg">
<path d="M7.658 27V5.54H0.258V1.1H20.09V5.54H12.468V27H7.658ZM34.501 27.37C32.6263 27.37 30.912 27.0493 29.358 26.408C27.804 25.7667 26.4596 24.854 25.325 23.67C24.1903 22.4613 23.3023 21.043 22.661 19.415C22.0443 17.7623 21.736 15.9617 21.736 14.013C21.736 12.1383 22.069 10.3993 22.735 8.796C23.401 7.19267 24.326 5.78667 25.51 4.578C26.694 3.36933 28.0753 2.432 29.654 1.766C31.2326 1.1 32.947 0.766998 34.797 0.766998C36.055 0.766998 37.276 0.951999 38.46 1.322C39.644 1.692 40.7293 2.21 41.716 2.876C42.7026 3.51733 43.529 4.26967 44.195 5.133L41.124 8.5C40.4826 7.834 39.8166 7.279 39.126 6.835C38.46 6.36633 37.757 6.021 37.017 5.799C36.3016 5.55233 35.5616 5.429 34.797 5.429C33.6623 5.429 32.5893 5.63867 31.578 6.058C30.5913 6.47733 29.728 7.06933 28.988 7.834C28.2726 8.59867 27.7053 9.51133 27.286 10.572C26.8666 11.608 26.657 12.7673 26.657 14.05C26.657 15.3573 26.8543 16.5413 27.249 17.602C27.6683 18.6627 28.248 19.5753 28.988 20.34C29.7526 21.1047 30.653 21.6967 31.689 22.116C32.7496 22.5107 33.909 22.708 35.167 22.708C35.981 22.708 36.7703 22.597 37.535 22.375C38.2996 22.153 39.0026 21.8447 39.644 21.45C40.31 21.0307 40.9143 20.5497 41.457 20.007L43.825 23.818C43.233 24.484 42.4436 25.0883 41.457 25.631C40.4703 26.1737 39.3603 26.6053 38.127 26.926C36.9183 27.222 35.7096 27.37 34.501 27.37ZM45.7429 27L55.8439 1.1H60.3579L70.3849 27H65.3899L59.8399 12.274C59.7166 11.978 59.5439 11.5093 59.3219 10.868C59.1246 10.2267 58.9026 9.536 58.6559 8.796C58.4093 8.03133 58.1873 7.32833 57.9899 6.687C57.7926 6.021 57.6446 5.54 57.5459 5.244L58.4709 5.207C58.3229 5.70033 58.1503 6.25533 57.9529 6.872C57.7556 7.48866 57.5459 8.13 57.3239 8.796C57.1019 9.462 56.8799 10.1033 56.6579 10.72C56.4606 11.3367 56.2756 11.8917 56.1029 12.385L50.5529 27H45.7429ZM50.3309 21.08L51.9959 16.899H63.7989L65.5749 21.08H50.3309ZM74.2879 27V1.1H85.0549C86.5349 1.1 87.8669 1.45767 89.0509 2.173C90.2596 2.88833 91.2216 3.86267 91.9369 5.096C92.6522 6.32933 93.0099 7.71067 93.0099 9.24C93.0099 10.794 92.6522 12.2 91.9369 13.458C91.2216 14.6913 90.2596 15.678 89.0509 16.418C87.8669 17.158 86.5349 17.528 85.0549 17.528H79.0979V27H74.2879ZM79.0979 13.088H84.7219C85.3386 13.088 85.8936 12.9153 86.3869 12.57C86.9049 12.2247 87.3119 11.7683 87.6079 11.201C87.9286 10.6337 88.0889 9.99233 88.0889 9.277C88.0889 8.56167 87.9286 7.93267 87.6079 7.39C87.3119 6.82267 86.9049 6.37867 86.3869 6.058C85.8936 5.71267 85.3386 5.54 84.7219 5.54H79.0979V13.088Z" fill="white"/>
</svg>
